<mxfile host="app.diagrams.net" modified="2021-02-21T02:20:29.575Z" agent="5.0 (Windows NT 10.0; Win64; x64) AppleWebKit/537.36 (KHTML, like Gecko) Chrome/88.0.4324.182 Safari/537.36" etag="mGF1ziWFnTvd3vbNdj3E" version="14.4.2" type="github">
  <diagram id="sDFonkG0ScVmTPXZYzip" name="Page-1">
    <mxGraphModel dx="5755" dy="2835" grid="1" gridSize="10" guides="1" tooltips="1" connect="1" arrows="1" fold="1" page="1" pageScale="1" pageWidth="1100" pageHeight="850" math="0" shadow="0">
      <root>
        <mxCell id="0" />
        <mxCell id="1" parent="0" />
        <mxCell id="i_vSF7Kx8suil93t1SV6-55" value="" style="group" vertex="1" connectable="0" parent="1">
          <mxGeometry x="-1560" y="80" width="333.3299999999999" height="650" as="geometry" />
        </mxCell>
        <mxCell id="i_vSF7Kx8suil93t1SV6-58" value="" style="group" vertex="1" connectable="0" parent="i_vSF7Kx8suil93t1SV6-55">
          <mxGeometry width="333.33" height="650" as="geometry" />
        </mxCell>
        <mxCell id="i_vSF7Kx8suil93t1SV6-59" value="" style="verticalLabelPosition=bottom;verticalAlign=top;html=1;shadow=0;dashed=0;strokeWidth=1;strokeColor=none;shape=rect;fillColor=#33b5e5;" vertex="1" parent="i_vSF7Kx8suil93t1SV6-58">
          <mxGeometry x="12.5" y="100" width="307.5" height="450" as="geometry" />
        </mxCell>
        <mxCell id="i_vSF7Kx8suil93t1SV6-60" value="" style="verticalLabelPosition=bottom;verticalAlign=top;html=1;shadow=0;dashed=0;strokeWidth=1;shape=mxgraph.android.phone2;strokeColor=#c0c0c0;" vertex="1" parent="i_vSF7Kx8suil93t1SV6-58">
          <mxGeometry width="333.33" height="650" as="geometry" />
        </mxCell>
        <mxCell id="i_vSF7Kx8suil93t1SV6-61" value="" style="strokeWidth=1;html=1;shadow=0;dashed=0;shape=mxgraph.android.action_bar;fillColor=#1A1A1A;strokeColor=#c0c0c0;strokeWidth=2;fontColor=#FFFFFF;" vertex="1" parent="i_vSF7Kx8suil93t1SV6-58">
          <mxGeometry x="12.499875" y="50" width="308.33025" height="50" as="geometry" />
        </mxCell>
        <mxCell id="i_vSF7Kx8suil93t1SV6-62" value="" style="verticalLabelPosition=bottom;verticalAlign=top;html=1;shadow=0;dashed=0;strokeWidth=2;shape=mxgraph.android.navigation_bar_1;fillColor=#1A1A1A;strokeColor=#999999;" vertex="1" parent="i_vSF7Kx8suil93t1SV6-58">
          <mxGeometry x="13.3332" y="549.9999999999999" width="308.33025" height="50" as="geometry" />
        </mxCell>
        <mxCell id="i_vSF7Kx8suil93t1SV6-63" value="" style="verticalLabelPosition=bottom;shadow=0;dashed=0;align=center;html=1;verticalAlign=top;strokeWidth=1;shape=mxgraph.mockup.graphics.simpleIcon;strokeColor=#999999;" vertex="1" parent="i_vSF7Kx8suil93t1SV6-58">
          <mxGeometry x="41.16" y="190" width="108.84" height="120" as="geometry" />
        </mxCell>
        <mxCell id="i_vSF7Kx8suil93t1SV6-64" value="&lt;h2&gt;&lt;b&gt;&lt;font style=&quot;font-size: 20px&quot;&gt;What is the Cat?&lt;/font&gt;&lt;/b&gt;&lt;/h2&gt;" style="text;html=1;strokeColor=none;fillColor=none;align=center;verticalAlign=middle;whiteSpace=wrap;rounded=0;" vertex="1" parent="i_vSF7Kx8suil93t1SV6-58">
          <mxGeometry x="42.5" y="130" width="250" height="20" as="geometry" />
        </mxCell>
        <mxCell id="i_vSF7Kx8suil93t1SV6-65" value="" style="verticalLabelPosition=bottom;shadow=0;dashed=0;align=center;html=1;verticalAlign=top;strokeWidth=1;shape=mxgraph.mockup.graphics.simpleIcon;strokeColor=#999999;" vertex="1" parent="i_vSF7Kx8suil93t1SV6-58">
          <mxGeometry x="41.15999999999997" y="350" width="108.84" height="120" as="geometry" />
        </mxCell>
        <mxCell id="i_vSF7Kx8suil93t1SV6-66" value="" style="verticalLabelPosition=bottom;shadow=0;dashed=0;align=center;html=1;verticalAlign=top;strokeWidth=1;shape=mxgraph.mockup.graphics.simpleIcon;strokeColor=#999999;" vertex="1" parent="i_vSF7Kx8suil93t1SV6-58">
          <mxGeometry x="180" y="351" width="106.5" height="119" as="geometry" />
        </mxCell>
        <mxCell id="i_vSF7Kx8suil93t1SV6-67" value="&#xa;&#xa;&lt;span style=&quot;color: rgb(0, 0, 0); font-family: helvetica; font-size: 12px; font-style: normal; font-weight: 400; letter-spacing: normal; text-align: center; text-indent: 0px; text-transform: none; word-spacing: 0px; background-color: rgb(248, 249, 250); display: inline; float: none;&quot;&gt;Img of a Cat&lt;/span&gt;&#xa;&#xa;" style="text;html=1;strokeColor=none;fillColor=none;align=center;verticalAlign=middle;whiteSpace=wrap;rounded=0;" vertex="1" parent="i_vSF7Kx8suil93t1SV6-58">
          <mxGeometry x="65.58000000000004" y="200" width="60" height="20" as="geometry" />
        </mxCell>
        <mxCell id="i_vSF7Kx8suil93t1SV6-68" value="Img of a Cow" style="text;html=1;strokeColor=none;fillColor=none;align=center;verticalAlign=middle;whiteSpace=wrap;rounded=0;" vertex="1" parent="i_vSF7Kx8suil93t1SV6-58">
          <mxGeometry x="203.25" y="360" width="60" height="20" as="geometry" />
        </mxCell>
        <mxCell id="i_vSF7Kx8suil93t1SV6-69" value="Img of a Bird" style="text;html=1;strokeColor=none;fillColor=none;align=center;verticalAlign=middle;whiteSpace=wrap;rounded=0;" vertex="1" parent="i_vSF7Kx8suil93t1SV6-58">
          <mxGeometry x="65.58000000000004" y="360" width="60" height="20" as="geometry" />
        </mxCell>
        <mxCell id="i_vSF7Kx8suil93t1SV6-70" value="" style="dashed=0;outlineConnect=0;html=1;align=center;labelPosition=center;verticalLabelPosition=bottom;verticalAlign=top;shape=mxgraph.weblogos.feed;fillColor=#000000;shadow=1;" vertex="1" parent="i_vSF7Kx8suil93t1SV6-58">
          <mxGeometry x="250" y="110" width="30.61" height="30" as="geometry" />
        </mxCell>
        <mxCell id="i_vSF7Kx8suil93t1SV6-71" value="" style="verticalLabelPosition=bottom;shadow=0;dashed=0;align=center;html=1;verticalAlign=top;strokeWidth=1;shape=mxgraph.mockup.graphics.simpleIcon;strokeColor=#999999;" vertex="1" parent="i_vSF7Kx8suil93t1SV6-58">
          <mxGeometry x="177.65999999999997" y="190" width="108.84" height="120" as="geometry" />
        </mxCell>
        <mxCell id="i_vSF7Kx8suil93t1SV6-72" value="&lt;span style=&quot;color: rgb(0 , 0 , 0) ; font-family: &amp;#34;helvetica&amp;#34; ; font-size: 12px ; font-style: normal ; font-weight: 400 ; letter-spacing: normal ; text-align: center ; text-indent: 0px ; text-transform: none ; word-spacing: 0px ; background-color: rgb(248 , 249 , 250) ; display: inline ; float: none&quot;&gt;Img of a Dog&lt;/span&gt;" style="text;html=1;strokeColor=none;fillColor=none;align=center;verticalAlign=middle;whiteSpace=wrap;rounded=0;" vertex="1" parent="i_vSF7Kx8suil93t1SV6-58">
          <mxGeometry x="203.25" y="199" width="60" height="20" as="geometry" />
        </mxCell>
        <mxCell id="i_vSF7Kx8suil93t1SV6-191" value="" style="group" vertex="1" connectable="0" parent="i_vSF7Kx8suil93t1SV6-55">
          <mxGeometry x="180" y="191" width="106.5" height="119" as="geometry" />
        </mxCell>
        <mxCell id="i_vSF7Kx8suil93t1SV6-56" value="" style="verticalLabelPosition=bottom;shadow=0;dashed=0;align=center;html=1;verticalAlign=top;strokeWidth=1;shape=mxgraph.mockup.graphics.simpleIcon;strokeColor=#999999;" vertex="1" parent="i_vSF7Kx8suil93t1SV6-191">
          <mxGeometry width="106.5" height="119" as="geometry" />
        </mxCell>
        <mxCell id="i_vSF7Kx8suil93t1SV6-57" value="Img of a Dog" style="text;html=1;strokeColor=none;fillColor=none;align=center;verticalAlign=middle;whiteSpace=wrap;rounded=0;" vertex="1" parent="i_vSF7Kx8suil93t1SV6-191">
          <mxGeometry x="20" y="9" width="60" height="20" as="geometry" />
        </mxCell>
        <mxCell id="i_vSF7Kx8suil93t1SV6-87" value="" style="group" vertex="1" connectable="0" parent="1">
          <mxGeometry x="-1560" y="-760" width="333.33" height="650" as="geometry" />
        </mxCell>
        <mxCell id="i_vSF7Kx8suil93t1SV6-88" value="" style="group" vertex="1" connectable="0" parent="i_vSF7Kx8suil93t1SV6-87">
          <mxGeometry width="333.33" height="650" as="geometry" />
        </mxCell>
        <mxCell id="i_vSF7Kx8suil93t1SV6-89" value="" style="group" vertex="1" connectable="0" parent="i_vSF7Kx8suil93t1SV6-88">
          <mxGeometry width="333.33" height="650" as="geometry" />
        </mxCell>
        <mxCell id="i_vSF7Kx8suil93t1SV6-90" value="" style="verticalLabelPosition=bottom;verticalAlign=top;html=1;shadow=0;dashed=0;strokeWidth=1;strokeColor=none;shape=rect;fillColor=#33b5e5;" vertex="1" parent="i_vSF7Kx8suil93t1SV6-89">
          <mxGeometry x="12.5" y="100" width="307.5" height="450" as="geometry" />
        </mxCell>
        <mxCell id="i_vSF7Kx8suil93t1SV6-91" value="" style="verticalLabelPosition=bottom;verticalAlign=top;html=1;shadow=0;dashed=0;strokeWidth=1;shape=mxgraph.android.phone2;strokeColor=#c0c0c0;" vertex="1" parent="i_vSF7Kx8suil93t1SV6-89">
          <mxGeometry width="333.33" height="650" as="geometry" />
        </mxCell>
        <mxCell id="i_vSF7Kx8suil93t1SV6-92" value="" style="strokeWidth=1;html=1;shadow=0;dashed=0;shape=mxgraph.android.action_bar;fillColor=#1A1A1A;strokeColor=#c0c0c0;strokeWidth=2;fontColor=#FFFFFF;" vertex="1" parent="i_vSF7Kx8suil93t1SV6-89">
          <mxGeometry x="12.499875" y="50" width="308.33025" height="50" as="geometry" />
        </mxCell>
        <mxCell id="i_vSF7Kx8suil93t1SV6-93" value="" style="verticalLabelPosition=bottom;verticalAlign=top;html=1;shadow=0;dashed=0;strokeWidth=2;shape=mxgraph.android.navigation_bar_1;fillColor=#1A1A1A;strokeColor=#999999;" vertex="1" parent="i_vSF7Kx8suil93t1SV6-89">
          <mxGeometry x="13.3332" y="549.9999999999999" width="308.33025" height="50" as="geometry" />
        </mxCell>
        <mxCell id="i_vSF7Kx8suil93t1SV6-94" value="&lt;h2&gt;&lt;b&gt;What do you want to learn today?&lt;/b&gt;&lt;/h2&gt;" style="text;html=1;strokeColor=none;fillColor=none;align=center;verticalAlign=middle;whiteSpace=wrap;rounded=0;shadow=1;" vertex="1" parent="i_vSF7Kx8suil93t1SV6-89">
          <mxGeometry x="86.25" y="130" width="162.5" height="20" as="geometry" />
        </mxCell>
        <mxCell id="i_vSF7Kx8suil93t1SV6-95" value="Animals" style="rounded=1;html=1;shadow=1;dashed=0;whiteSpace=wrap;fontSize=10;fillColor=#E6E6E6;align=center;strokeColor=#E6E6E6;fontColor=#333333;" vertex="1" parent="i_vSF7Kx8suil93t1SV6-89">
          <mxGeometry x="122.37" y="459" width="140.25" height="50" as="geometry" />
        </mxCell>
        <mxCell id="i_vSF7Kx8suil93t1SV6-96" value="Colors" style="rounded=1;html=1;shadow=1;dashed=0;whiteSpace=wrap;fontSize=10;fillColor=#E6E6E6;align=center;strokeColor=#E6E6E6;fontColor=#333333;" vertex="1" parent="i_vSF7Kx8suil93t1SV6-89">
          <mxGeometry x="122.38" y="370" width="140.25" height="50" as="geometry" />
        </mxCell>
        <mxCell id="i_vSF7Kx8suil93t1SV6-97" value="Numbers" style="rounded=1;html=1;shadow=1;dashed=0;whiteSpace=wrap;fontSize=10;fillColor=#E6E6E6;align=center;strokeColor=#E6E6E6;fontColor=#333333;" vertex="1" parent="i_vSF7Kx8suil93t1SV6-89">
          <mxGeometry x="121.12" y="288" width="140.25" height="50" as="geometry" />
        </mxCell>
        <mxCell id="i_vSF7Kx8suil93t1SV6-98" value="My name" style="rounded=1;html=1;shadow=1;dashed=0;whiteSpace=wrap;fontSize=10;fillColor=#E6E6E6;align=center;strokeColor=#E6E6E6;fontColor=#333333;" vertex="1" parent="i_vSF7Kx8suil93t1SV6-89">
          <mxGeometry x="122.38" y="202" width="140.25" height="50" as="geometry" />
        </mxCell>
        <mxCell id="i_vSF7Kx8suil93t1SV6-99" style="edgeStyle=orthogonalEdgeStyle;rounded=0;orthogonalLoop=1;jettySize=auto;html=1;exitX=0.5;exitY=1;exitDx=0;exitDy=0;" edge="1" parent="i_vSF7Kx8suil93t1SV6-89">
          <mxGeometry relative="1" as="geometry">
            <mxPoint x="85.5" y="261" as="sourcePoint" />
            <mxPoint x="85.5" y="261" as="targetPoint" />
          </mxGeometry>
        </mxCell>
        <mxCell id="i_vSF7Kx8suil93t1SV6-100" value="" style="verticalLabelPosition=bottom;shadow=0;dashed=0;align=center;html=1;verticalAlign=top;strokeWidth=1;shape=mxgraph.mockup.graphics.simpleIcon;strokeColor=#999999;" vertex="1" parent="i_vSF7Kx8suil93t1SV6-89">
          <mxGeometry x="41.120000000000005" y="183" width="80" height="80" as="geometry" />
        </mxCell>
        <mxCell id="i_vSF7Kx8suil93t1SV6-101" value="" style="verticalLabelPosition=bottom;shadow=0;dashed=0;align=center;html=1;verticalAlign=top;strokeWidth=1;shape=mxgraph.mockup.graphics.simpleIcon;strokeColor=#999999;" vertex="1" parent="i_vSF7Kx8suil93t1SV6-89">
          <mxGeometry x="41.120000000000005" y="269" width="80" height="80" as="geometry" />
        </mxCell>
        <mxCell id="i_vSF7Kx8suil93t1SV6-102" value="" style="verticalLabelPosition=bottom;shadow=0;dashed=0;align=center;html=1;verticalAlign=top;strokeWidth=1;shape=mxgraph.mockup.graphics.simpleIcon;strokeColor=#999999;" vertex="1" parent="i_vSF7Kx8suil93t1SV6-89">
          <mxGeometry x="41.120000000000005" y="444" width="81" height="80" as="geometry" />
        </mxCell>
        <mxCell id="i_vSF7Kx8suil93t1SV6-103" value="" style="verticalLabelPosition=bottom;shadow=0;dashed=0;align=center;html=1;verticalAlign=top;strokeWidth=1;shape=mxgraph.mockup.graphics.simpleIcon;strokeColor=#999999;" vertex="1" parent="i_vSF7Kx8suil93t1SV6-88">
          <mxGeometry x="42.120000000000005" y="355" width="80" height="80" as="geometry" />
        </mxCell>
        <mxCell id="i_vSF7Kx8suil93t1SV6-104" value="" style="group" vertex="1" connectable="0" parent="1">
          <mxGeometry x="-1000" y="-760" width="413" height="650" as="geometry" />
        </mxCell>
        <mxCell id="i_vSF7Kx8suil93t1SV6-105" value="" style="verticalLabelPosition=bottom;verticalAlign=top;html=1;shadow=0;dashed=0;strokeWidth=1;strokeColor=none;shape=rect;fillColor=#33b5e5;" vertex="1" parent="i_vSF7Kx8suil93t1SV6-104">
          <mxGeometry x="12.5" y="100" width="307.5" height="450" as="geometry" />
        </mxCell>
        <mxCell id="i_vSF7Kx8suil93t1SV6-106" value="" style="verticalLabelPosition=bottom;verticalAlign=top;html=1;shadow=0;dashed=0;strokeWidth=1;shape=mxgraph.android.phone2;strokeColor=#c0c0c0;" vertex="1" parent="i_vSF7Kx8suil93t1SV6-104">
          <mxGeometry width="333.33" height="650" as="geometry" />
        </mxCell>
        <mxCell id="i_vSF7Kx8suil93t1SV6-107" value="" style="strokeWidth=1;html=1;shadow=0;dashed=0;shape=mxgraph.android.action_bar;fillColor=#1A1A1A;strokeColor=#c0c0c0;strokeWidth=2;fontColor=#FFFFFF;" vertex="1" parent="i_vSF7Kx8suil93t1SV6-104">
          <mxGeometry x="12.499875" y="50" width="308.33025" height="50" as="geometry" />
        </mxCell>
        <mxCell id="i_vSF7Kx8suil93t1SV6-108" value="" style="verticalLabelPosition=bottom;verticalAlign=top;html=1;shadow=0;dashed=0;strokeWidth=2;shape=mxgraph.android.navigation_bar_1;fillColor=#1A1A1A;strokeColor=#999999;" vertex="1" parent="i_vSF7Kx8suil93t1SV6-104">
          <mxGeometry x="13.3332" y="549.9999999999999" width="308.33025" height="50" as="geometry" />
        </mxCell>
        <mxCell id="i_vSF7Kx8suil93t1SV6-109" value="&lt;h2&gt;&lt;b&gt;Do you know what letters are in your name?&lt;/b&gt;&lt;/h2&gt;" style="text;html=1;strokeColor=none;fillColor=none;align=center;verticalAlign=middle;whiteSpace=wrap;rounded=0;shadow=1;" vertex="1" parent="i_vSF7Kx8suil93t1SV6-104">
          <mxGeometry x="86.25" y="130" width="162.5" height="20" as="geometry" />
        </mxCell>
        <mxCell id="i_vSF7Kx8suil93t1SV6-110" style="edgeStyle=orthogonalEdgeStyle;rounded=0;orthogonalLoop=1;jettySize=auto;html=1;exitX=0.5;exitY=1;exitDx=0;exitDy=0;" edge="1" parent="i_vSF7Kx8suil93t1SV6-104">
          <mxGeometry relative="1" as="geometry">
            <mxPoint x="221.25" y="410" as="sourcePoint" />
            <mxPoint x="221.25" y="410" as="targetPoint" />
          </mxGeometry>
        </mxCell>
        <mxCell id="i_vSF7Kx8suil93t1SV6-111" value="&lt;h1&gt;&lt;b&gt;&lt;span style=&quot;font-size: 60px&quot;&gt;A&lt;/span&gt;&lt;font style=&quot;font-size: 80px&quot; color=&quot;#ff7112&quot;&gt;u&lt;/font&gt;&lt;span style=&quot;font-size: 60px&quot;&gt;stin&lt;/span&gt;&lt;/b&gt;&lt;/h1&gt;" style="text;html=1;strokeColor=none;fillColor=none;align=center;verticalAlign=middle;whiteSpace=wrap;rounded=0;shadow=1;" vertex="1" parent="i_vSF7Kx8suil93t1SV6-104">
          <mxGeometry x="86.25" y="260" width="162.5" height="20" as="geometry" />
        </mxCell>
        <mxCell id="i_vSF7Kx8suil93t1SV6-112" value="&lt;h2 style=&quot;font-size: 30px&quot;&gt;&lt;font color=&quot;#ff7112&quot;&gt;U&lt;/font&gt;&lt;/h2&gt;" style="text;html=1;strokeColor=none;fillColor=none;align=center;verticalAlign=middle;whiteSpace=wrap;rounded=0;shadow=1;" vertex="1" parent="i_vSF7Kx8suil93t1SV6-104">
          <mxGeometry x="80.41999999999996" y="360" width="162.5" height="20" as="geometry" />
        </mxCell>
        <mxCell id="i_vSF7Kx8suil93t1SV6-113" value="" style="dashed=0;outlineConnect=0;html=1;align=center;labelPosition=center;verticalLabelPosition=bottom;verticalAlign=top;shape=mxgraph.weblogos.feed;fillColor=#000000;shadow=1;" vertex="1" parent="i_vSF7Kx8suil93t1SV6-104">
          <mxGeometry x="183" y="330" width="30.61" height="30" as="geometry" />
        </mxCell>
        <mxCell id="i_vSF7Kx8suil93t1SV6-114" value="Audio for&lt;br&gt;the sound&lt;br&gt;of the letter&lt;br&gt;U" style="strokeWidth=1;shadow=0;dashed=0;align=center;html=1;shape=mxgraph.mockup.text.callout;linkText=;textSize=17;textColor=#666666;callDir=NE;callStyle=line;fontSize=17;fontColor=#666666;align=right;verticalAlign=top;strokeColor=#666666;" vertex="1" parent="i_vSF7Kx8suil93t1SV6-104">
          <mxGeometry x="213" y="250" width="200" height="100" as="geometry" />
        </mxCell>
        <mxCell id="i_vSF7Kx8suil93t1SV6-115" value="" style="group" vertex="1" connectable="0" parent="1">
          <mxGeometry x="-480" y="-760" width="365" height="650" as="geometry" />
        </mxCell>
        <mxCell id="i_vSF7Kx8suil93t1SV6-116" value="" style="verticalLabelPosition=bottom;verticalAlign=top;html=1;shadow=0;dashed=0;strokeWidth=1;strokeColor=none;shape=rect;fillColor=#33b5e5;" vertex="1" parent="i_vSF7Kx8suil93t1SV6-115">
          <mxGeometry x="12.5" y="100" width="307.5" height="450" as="geometry" />
        </mxCell>
        <mxCell id="i_vSF7Kx8suil93t1SV6-117" value="" style="verticalLabelPosition=bottom;verticalAlign=top;html=1;shadow=0;dashed=0;strokeWidth=1;shape=mxgraph.android.phone2;strokeColor=#c0c0c0;" vertex="1" parent="i_vSF7Kx8suil93t1SV6-115">
          <mxGeometry width="333.33" height="650" as="geometry" />
        </mxCell>
        <mxCell id="i_vSF7Kx8suil93t1SV6-118" value="" style="strokeWidth=1;html=1;shadow=0;dashed=0;shape=mxgraph.android.action_bar;fillColor=#1A1A1A;strokeColor=#c0c0c0;strokeWidth=2;fontColor=#FFFFFF;" vertex="1" parent="i_vSF7Kx8suil93t1SV6-115">
          <mxGeometry x="12.499875" y="50" width="308.33025" height="50" as="geometry" />
        </mxCell>
        <mxCell id="i_vSF7Kx8suil93t1SV6-119" value="" style="verticalLabelPosition=bottom;verticalAlign=top;html=1;shadow=0;dashed=0;strokeWidth=2;shape=mxgraph.android.navigation_bar_1;fillColor=#1A1A1A;strokeColor=#999999;" vertex="1" parent="i_vSF7Kx8suil93t1SV6-115">
          <mxGeometry x="13.3332" y="549.9999999999999" width="308.33025" height="50" as="geometry" />
        </mxCell>
        <mxCell id="i_vSF7Kx8suil93t1SV6-120" value="&lt;h2&gt;&lt;b&gt;Here are some numbers!&amp;nbsp;&lt;/b&gt;&lt;/h2&gt;" style="text;html=1;strokeColor=none;fillColor=none;align=center;verticalAlign=middle;whiteSpace=wrap;rounded=0;shadow=1;" vertex="1" parent="i_vSF7Kx8suil93t1SV6-115">
          <mxGeometry x="86.25" y="130" width="162.5" height="20" as="geometry" />
        </mxCell>
        <mxCell id="i_vSF7Kx8suil93t1SV6-121" value="" style="verticalLabelPosition=bottom;shadow=0;dashed=0;align=center;html=1;verticalAlign=top;strokeWidth=1;shape=mxgraph.mockup.graphics.simpleIcon;strokeColor=#999999;" vertex="1" parent="i_vSF7Kx8suil93t1SV6-115">
          <mxGeometry x="31.25" y="290" width="80" height="80" as="geometry" />
        </mxCell>
        <mxCell id="i_vSF7Kx8suil93t1SV6-122" value="" style="verticalLabelPosition=bottom;shadow=0;dashed=0;align=center;html=1;verticalAlign=top;strokeWidth=1;shape=mxgraph.mockup.graphics.simpleIcon;strokeColor=#999999;" vertex="1" parent="i_vSF7Kx8suil93t1SV6-115">
          <mxGeometry x="127.5" y="290" width="80" height="80" as="geometry" />
        </mxCell>
        <mxCell id="i_vSF7Kx8suil93t1SV6-123" value="" style="verticalLabelPosition=bottom;shadow=0;dashed=0;align=center;html=1;verticalAlign=top;strokeWidth=1;shape=mxgraph.mockup.graphics.simpleIcon;strokeColor=#999999;" vertex="1" parent="i_vSF7Kx8suil93t1SV6-115">
          <mxGeometry x="221.25" y="290" width="80" height="80" as="geometry" />
        </mxCell>
        <mxCell id="i_vSF7Kx8suil93t1SV6-124" value="" style="verticalLabelPosition=bottom;shadow=0;dashed=0;align=center;html=1;verticalAlign=top;strokeWidth=1;shape=mxgraph.mockup.graphics.simpleIcon;strokeColor=#999999;" vertex="1" parent="i_vSF7Kx8suil93t1SV6-115">
          <mxGeometry x="81.25" y="385" width="80" height="80" as="geometry" />
        </mxCell>
        <mxCell id="i_vSF7Kx8suil93t1SV6-125" value="" style="verticalLabelPosition=bottom;shadow=0;dashed=0;align=center;html=1;verticalAlign=top;strokeWidth=1;shape=mxgraph.mockup.graphics.simpleIcon;strokeColor=#999999;" vertex="1" parent="i_vSF7Kx8suil93t1SV6-115">
          <mxGeometry x="181.25" y="385" width="80" height="80" as="geometry" />
        </mxCell>
        <mxCell id="i_vSF7Kx8suil93t1SV6-126" value="1" style="text;html=1;strokeColor=none;fillColor=none;align=center;verticalAlign=middle;whiteSpace=wrap;rounded=0;shadow=1;" vertex="1" parent="i_vSF7Kx8suil93t1SV6-115">
          <mxGeometry x="51.25" y="300" width="40" height="20" as="geometry" />
        </mxCell>
        <mxCell id="i_vSF7Kx8suil93t1SV6-127" value="2" style="text;html=1;strokeColor=none;fillColor=none;align=center;verticalAlign=middle;whiteSpace=wrap;rounded=0;shadow=1;" vertex="1" parent="i_vSF7Kx8suil93t1SV6-115">
          <mxGeometry x="148.75" y="300" width="40" height="20" as="geometry" />
        </mxCell>
        <mxCell id="i_vSF7Kx8suil93t1SV6-128" value="3" style="text;html=1;strokeColor=none;fillColor=none;align=center;verticalAlign=middle;whiteSpace=wrap;rounded=0;shadow=1;" vertex="1" parent="i_vSF7Kx8suil93t1SV6-115">
          <mxGeometry x="241.25" y="300" width="40" height="20" as="geometry" />
        </mxCell>
        <mxCell id="i_vSF7Kx8suil93t1SV6-129" value="4" style="text;html=1;strokeColor=none;fillColor=none;align=center;verticalAlign=middle;whiteSpace=wrap;rounded=0;shadow=1;" vertex="1" parent="i_vSF7Kx8suil93t1SV6-115">
          <mxGeometry x="101.25" y="390" width="40" height="20" as="geometry" />
        </mxCell>
        <mxCell id="i_vSF7Kx8suil93t1SV6-130" value="5" style="text;html=1;strokeColor=none;fillColor=none;align=center;verticalAlign=middle;whiteSpace=wrap;rounded=0;shadow=1;" vertex="1" parent="i_vSF7Kx8suil93t1SV6-115">
          <mxGeometry x="201.25" y="390" width="40" height="20" as="geometry" />
        </mxCell>
        <mxCell id="i_vSF7Kx8suil93t1SV6-131" value="&lt;h2&gt;&lt;b&gt;Click on each number to learn how to say it!&lt;/b&gt;&lt;/h2&gt;" style="text;html=1;strokeColor=none;fillColor=none;align=center;verticalAlign=middle;whiteSpace=wrap;rounded=0;shadow=1;" vertex="1" parent="i_vSF7Kx8suil93t1SV6-115">
          <mxGeometry x="85.41999999999999" y="210" width="162.5" height="20" as="geometry" />
        </mxCell>
        <mxCell id="i_vSF7Kx8suil93t1SV6-132" style="edgeStyle=orthogonalEdgeStyle;rounded=0;orthogonalLoop=1;jettySize=auto;html=1;exitX=0.5;exitY=1;exitDx=0;exitDy=0;" edge="1" parent="i_vSF7Kx8suil93t1SV6-115" source="i_vSF7Kx8suil93t1SV6-130" target="i_vSF7Kx8suil93t1SV6-130">
          <mxGeometry relative="1" as="geometry" />
        </mxCell>
        <mxCell id="i_vSF7Kx8suil93t1SV6-133" value="Audio of the&amp;nbsp;&lt;br&gt;number" style="strokeWidth=1;shadow=0;dashed=0;align=center;html=1;shape=mxgraph.mockup.text.callout;linkText=;textSize=17;textColor=#666666;callDir=NE;callStyle=line;fontSize=17;fontColor=#666666;align=right;verticalAlign=top;strokeColor=#666666;" vertex="1" parent="i_vSF7Kx8suil93t1SV6-115">
          <mxGeometry x="165" y="200" width="200" height="100" as="geometry" />
        </mxCell>
        <mxCell id="i_vSF7Kx8suil93t1SV6-134" value="" style="dashed=0;outlineConnect=0;html=1;align=center;labelPosition=center;verticalLabelPosition=bottom;verticalAlign=top;shape=mxgraph.weblogos.feed;fillColor=#000000;shadow=1;" vertex="1" parent="i_vSF7Kx8suil93t1SV6-115">
          <mxGeometry x="261.25" y="150" width="30.61" height="30" as="geometry" />
        </mxCell>
        <mxCell id="i_vSF7Kx8suil93t1SV6-135" value="" style="group" vertex="1" connectable="0" parent="1">
          <mxGeometry x="-2080" y="-760" width="333.33" height="650" as="geometry" />
        </mxCell>
        <mxCell id="i_vSF7Kx8suil93t1SV6-136" value="" style="verticalLabelPosition=bottom;verticalAlign=top;html=1;shadow=0;dashed=0;strokeWidth=1;strokeColor=none;shape=rect;fillColor=#33b5e5;" vertex="1" parent="i_vSF7Kx8suil93t1SV6-135">
          <mxGeometry x="12.5" y="100" width="307.5" height="450" as="geometry" />
        </mxCell>
        <mxCell id="i_vSF7Kx8suil93t1SV6-137" value="" style="verticalLabelPosition=bottom;verticalAlign=top;html=1;shadow=0;dashed=0;strokeWidth=1;shape=mxgraph.android.phone2;strokeColor=#c0c0c0;" vertex="1" parent="i_vSF7Kx8suil93t1SV6-135">
          <mxGeometry width="333.33" height="650" as="geometry" />
        </mxCell>
        <mxCell id="i_vSF7Kx8suil93t1SV6-138" value="" style="strokeWidth=1;html=1;shadow=0;dashed=0;shape=mxgraph.android.action_bar;fillColor=#1A1A1A;strokeColor=#c0c0c0;strokeWidth=2;fontColor=#FFFFFF;" vertex="1" parent="i_vSF7Kx8suil93t1SV6-135">
          <mxGeometry x="12.499875" y="50" width="308.33025" height="50" as="geometry" />
        </mxCell>
        <mxCell id="i_vSF7Kx8suil93t1SV6-139" value="" style="verticalLabelPosition=bottom;verticalAlign=top;html=1;shadow=0;dashed=0;strokeWidth=2;shape=mxgraph.android.navigation_bar_1;fillColor=#1A1A1A;strokeColor=#999999;" vertex="1" parent="i_vSF7Kx8suil93t1SV6-135">
          <mxGeometry x="13.3332" y="549.9999999999999" width="308.33025" height="50" as="geometry" />
        </mxCell>
        <mxCell id="i_vSF7Kx8suil93t1SV6-140" value="Child Name" style="text;html=1;strokeColor=none;fillColor=none;align=center;verticalAlign=middle;whiteSpace=wrap;rounded=0;shadow=0;fontStyle=1" vertex="1" parent="i_vSF7Kx8suil93t1SV6-135">
          <mxGeometry x="52" y="140" width="40" height="20" as="geometry" />
        </mxCell>
        <mxCell id="i_vSF7Kx8suil93t1SV6-141" value="" style="group" vertex="1" connectable="0" parent="i_vSF7Kx8suil93t1SV6-135">
          <mxGeometry x="120" y="130" width="190" height="40" as="geometry" />
        </mxCell>
        <mxCell id="i_vSF7Kx8suil93t1SV6-142" value="" style="rounded=0;whiteSpace=wrap;html=1;shadow=0;fillColor=#FFFFFF;strokeColor=none;" vertex="1" parent="i_vSF7Kx8suil93t1SV6-141">
          <mxGeometry width="190" height="40" as="geometry" />
        </mxCell>
        <mxCell id="i_vSF7Kx8suil93t1SV6-143" value="Name" style="text;html=1;strokeColor=none;fillColor=none;align=center;verticalAlign=middle;whiteSpace=wrap;rounded=0;shadow=0;fontStyle=1;fontColor=#BDBDBD;" vertex="1" parent="i_vSF7Kx8suil93t1SV6-141">
          <mxGeometry x="10" y="10" width="40" height="20" as="geometry" />
        </mxCell>
        <mxCell id="i_vSF7Kx8suil93t1SV6-144" value="" style="line;strokeWidth=1;html=1;shadow=0;fillColor=#FFFFFF;fontColor=#BDBDBD;" vertex="1" parent="i_vSF7Kx8suil93t1SV6-141">
          <mxGeometry x="10" y="30" width="160" height="10" as="geometry" />
        </mxCell>
        <mxCell id="i_vSF7Kx8suil93t1SV6-145" value="" style="group" vertex="1" connectable="0" parent="i_vSF7Kx8suil93t1SV6-135">
          <mxGeometry x="120" y="190" width="190" height="40" as="geometry" />
        </mxCell>
        <mxCell id="i_vSF7Kx8suil93t1SV6-146" value="" style="rounded=0;whiteSpace=wrap;html=1;shadow=0;fillColor=#FFFFFF;strokeColor=none;" vertex="1" parent="i_vSF7Kx8suil93t1SV6-145">
          <mxGeometry width="190" height="40" as="geometry" />
        </mxCell>
        <mxCell id="i_vSF7Kx8suil93t1SV6-147" value="Age" style="text;html=1;strokeColor=none;fillColor=none;align=center;verticalAlign=middle;whiteSpace=wrap;rounded=0;shadow=0;fontStyle=1;fontColor=#BDBDBD;" vertex="1" parent="i_vSF7Kx8suil93t1SV6-145">
          <mxGeometry x="10" y="10" width="40" height="20" as="geometry" />
        </mxCell>
        <mxCell id="i_vSF7Kx8suil93t1SV6-148" value="" style="line;strokeWidth=1;html=1;shadow=0;fillColor=#FFFFFF;fontColor=#BDBDBD;" vertex="1" parent="i_vSF7Kx8suil93t1SV6-145">
          <mxGeometry x="10" y="30" width="160" height="10" as="geometry" />
        </mxCell>
        <mxCell id="i_vSF7Kx8suil93t1SV6-149" value="Age" style="text;html=1;strokeColor=none;fillColor=none;align=center;verticalAlign=middle;whiteSpace=wrap;rounded=0;shadow=0;fontStyle=1" vertex="1" parent="i_vSF7Kx8suil93t1SV6-135">
          <mxGeometry x="52" y="200" width="40" height="20" as="geometry" />
        </mxCell>
        <mxCell id="i_vSF7Kx8suil93t1SV6-150" value="" style="whiteSpace=wrap;html=1;aspect=fixed;shadow=0;fillColor=#FFFFFF;fontColor=#000000;strokeColor=none;rounded=1;" vertex="1" parent="i_vSF7Kx8suil93t1SV6-135">
          <mxGeometry x="280" y="260" width="20" height="20" as="geometry" />
        </mxCell>
        <mxCell id="i_vSF7Kx8suil93t1SV6-151" value="" style="whiteSpace=wrap;html=1;aspect=fixed;shadow=0;fontColor=#000000;strokeColor=none;fillColor=#0ADEFF;rounded=1;" vertex="1" parent="i_vSF7Kx8suil93t1SV6-135">
          <mxGeometry x="282.5" y="262.5" width="15" height="15" as="geometry" />
        </mxCell>
        <mxCell id="i_vSF7Kx8suil93t1SV6-152" value="Use more advanced material?" style="text;html=1;strokeColor=none;fillColor=none;align=center;verticalAlign=middle;whiteSpace=wrap;rounded=0;shadow=0;fontStyle=1" vertex="1" parent="i_vSF7Kx8suil93t1SV6-135">
          <mxGeometry x="20" y="245" width="228" height="50" as="geometry" />
        </mxCell>
        <mxCell id="i_vSF7Kx8suil93t1SV6-153" value="" style="line;strokeWidth=1;html=1;rounded=1;shadow=0;fillColor=#0ADEFF;fontColor=#000000;" vertex="1" parent="i_vSF7Kx8suil93t1SV6-135">
          <mxGeometry x="30" y="240" width="280" height="10" as="geometry" />
        </mxCell>
        <mxCell id="i_vSF7Kx8suil93t1SV6-173" value="" style="group" vertex="1" connectable="0" parent="1">
          <mxGeometry x="-2080" y="80" width="333.3299999999999" height="650" as="geometry" />
        </mxCell>
        <mxCell id="i_vSF7Kx8suil93t1SV6-174" value="" style="verticalLabelPosition=bottom;shadow=0;dashed=0;align=center;html=1;verticalAlign=top;strokeWidth=1;shape=mxgraph.mockup.graphics.simpleIcon;strokeColor=#999999;" vertex="1" parent="i_vSF7Kx8suil93t1SV6-173">
          <mxGeometry x="180" y="191" width="106.5" height="119" as="geometry" />
        </mxCell>
        <mxCell id="i_vSF7Kx8suil93t1SV6-175" value="Img of a Dog" style="text;html=1;strokeColor=none;fillColor=none;align=center;verticalAlign=middle;whiteSpace=wrap;rounded=0;" vertex="1" parent="i_vSF7Kx8suil93t1SV6-173">
          <mxGeometry x="200" y="200" width="60" height="20" as="geometry" />
        </mxCell>
        <mxCell id="i_vSF7Kx8suil93t1SV6-176" value="" style="group" vertex="1" connectable="0" parent="i_vSF7Kx8suil93t1SV6-173">
          <mxGeometry width="333.33" height="650" as="geometry" />
        </mxCell>
        <mxCell id="i_vSF7Kx8suil93t1SV6-177" value="" style="verticalLabelPosition=bottom;verticalAlign=top;html=1;shadow=0;dashed=0;strokeWidth=1;strokeColor=none;shape=rect;fillColor=#33b5e5;" vertex="1" parent="i_vSF7Kx8suil93t1SV6-176">
          <mxGeometry x="12.5" y="100" width="307.5" height="450" as="geometry" />
        </mxCell>
        <mxCell id="i_vSF7Kx8suil93t1SV6-178" value="" style="verticalLabelPosition=bottom;verticalAlign=top;html=1;shadow=0;dashed=0;strokeWidth=1;shape=mxgraph.android.phone2;strokeColor=#c0c0c0;" vertex="1" parent="i_vSF7Kx8suil93t1SV6-176">
          <mxGeometry width="333.33" height="650" as="geometry" />
        </mxCell>
        <mxCell id="i_vSF7Kx8suil93t1SV6-179" value="" style="strokeWidth=1;html=1;shadow=0;dashed=0;shape=mxgraph.android.action_bar;fillColor=#1A1A1A;strokeColor=#c0c0c0;strokeWidth=2;fontColor=#FFFFFF;" vertex="1" parent="i_vSF7Kx8suil93t1SV6-176">
          <mxGeometry x="12.499875" y="50" width="308.33025" height="50" as="geometry" />
        </mxCell>
        <mxCell id="i_vSF7Kx8suil93t1SV6-180" value="" style="verticalLabelPosition=bottom;verticalAlign=top;html=1;shadow=0;dashed=0;strokeWidth=2;shape=mxgraph.android.navigation_bar_1;fillColor=#1A1A1A;strokeColor=#999999;" vertex="1" parent="i_vSF7Kx8suil93t1SV6-176">
          <mxGeometry x="13.3332" y="549.9999999999999" width="308.33025" height="50" as="geometry" />
        </mxCell>
        <mxCell id="i_vSF7Kx8suil93t1SV6-181" value="" style="verticalLabelPosition=bottom;shadow=0;dashed=0;align=center;html=1;verticalAlign=top;strokeWidth=1;shape=mxgraph.mockup.graphics.simpleIcon;strokeColor=#3700CC;fillColor=#6a00ff;fontColor=#ffffff;" vertex="1" parent="i_vSF7Kx8suil93t1SV6-176">
          <mxGeometry x="41.16" y="190" width="108.84" height="120" as="geometry" />
        </mxCell>
        <mxCell id="i_vSF7Kx8suil93t1SV6-182" value="&lt;h2&gt;&lt;b&gt;&lt;font style=&quot;font-size: 20px&quot;&gt;What is the red color?&lt;/font&gt;&lt;/b&gt;&lt;/h2&gt;" style="text;html=1;strokeColor=none;fillColor=none;align=center;verticalAlign=middle;whiteSpace=wrap;rounded=0;" vertex="1" parent="i_vSF7Kx8suil93t1SV6-176">
          <mxGeometry x="42.5" y="130" width="250" height="20" as="geometry" />
        </mxCell>
        <mxCell id="i_vSF7Kx8suil93t1SV6-183" value="" style="verticalLabelPosition=bottom;shadow=0;dashed=0;align=center;html=1;verticalAlign=top;strokeWidth=1;shape=mxgraph.mockup.graphics.simpleIcon;strokeColor=#2D7600;fillColor=#60a917;fontColor=#ffffff;" vertex="1" parent="i_vSF7Kx8suil93t1SV6-176">
          <mxGeometry x="41.15999999999997" y="350" width="108.84" height="120" as="geometry" />
        </mxCell>
        <mxCell id="i_vSF7Kx8suil93t1SV6-184" value="" style="verticalLabelPosition=bottom;shadow=0;dashed=0;align=center;html=1;verticalAlign=top;strokeWidth=1;shape=mxgraph.mockup.graphics.simpleIcon;strokeColor=#B20000;fillColor=#e51400;fontColor=#ffffff;" vertex="1" parent="i_vSF7Kx8suil93t1SV6-176">
          <mxGeometry x="180" y="351" width="106.5" height="119" as="geometry" />
        </mxCell>
        <mxCell id="i_vSF7Kx8suil93t1SV6-188" value="" style="dashed=0;outlineConnect=0;html=1;align=center;labelPosition=center;verticalLabelPosition=bottom;verticalAlign=top;shape=mxgraph.weblogos.feed;fillColor=#000000;shadow=1;" vertex="1" parent="i_vSF7Kx8suil93t1SV6-176">
          <mxGeometry x="280" y="110" width="30.61" height="30" as="geometry" />
        </mxCell>
        <mxCell id="i_vSF7Kx8suil93t1SV6-189" value="" style="verticalLabelPosition=bottom;shadow=0;dashed=0;align=center;html=1;verticalAlign=top;strokeWidth=1;shape=mxgraph.mockup.graphics.simpleIcon;strokeColor=#A50040;fillColor=#d80073;fontColor=#ffffff;" vertex="1" parent="i_vSF7Kx8suil93t1SV6-176">
          <mxGeometry x="177.65999999999997" y="190" width="108.84" height="120" as="geometry" />
        </mxCell>
        <mxCell id="i_vSF7Kx8suil93t1SV6-192" value="" style="group" vertex="1" connectable="0" parent="1">
          <mxGeometry x="-1000" y="80" width="333.33" height="650" as="geometry" />
        </mxCell>
        <mxCell id="i_vSF7Kx8suil93t1SV6-193" value="" style="verticalLabelPosition=bottom;verticalAlign=top;html=1;shadow=0;dashed=0;strokeWidth=1;strokeColor=none;shape=rect;fillColor=#33b5e5;" vertex="1" parent="i_vSF7Kx8suil93t1SV6-192">
          <mxGeometry x="12.5" y="100" width="307.5" height="450" as="geometry" />
        </mxCell>
        <mxCell id="i_vSF7Kx8suil93t1SV6-194" value="" style="verticalLabelPosition=bottom;verticalAlign=top;html=1;shadow=0;dashed=0;strokeWidth=1;shape=mxgraph.android.phone2;strokeColor=#c0c0c0;" vertex="1" parent="i_vSF7Kx8suil93t1SV6-192">
          <mxGeometry width="333.33" height="650" as="geometry" />
        </mxCell>
        <mxCell id="i_vSF7Kx8suil93t1SV6-195" value="" style="strokeWidth=1;html=1;shadow=0;dashed=0;shape=mxgraph.android.action_bar;fillColor=#1A1A1A;strokeColor=#c0c0c0;strokeWidth=2;fontColor=#FFFFFF;" vertex="1" parent="i_vSF7Kx8suil93t1SV6-192">
          <mxGeometry x="12.499875" y="50" width="308.33025" height="50" as="geometry" />
        </mxCell>
        <mxCell id="i_vSF7Kx8suil93t1SV6-196" value="" style="verticalLabelPosition=bottom;verticalAlign=top;html=1;shadow=0;dashed=0;strokeWidth=2;shape=mxgraph.android.navigation_bar_1;fillColor=#1A1A1A;strokeColor=#999999;" vertex="1" parent="i_vSF7Kx8suil93t1SV6-192">
          <mxGeometry x="13.3332" y="549.9999999999999" width="308.33025" height="50" as="geometry" />
        </mxCell>
        <mxCell id="i_vSF7Kx8suil93t1SV6-198" value="&lt;h2&gt;&lt;b&gt;&lt;font style=&quot;font-size: 20px&quot;&gt;What Shape a triangle?&lt;/font&gt;&lt;/b&gt;&lt;/h2&gt;" style="text;html=1;strokeColor=none;fillColor=none;align=center;verticalAlign=middle;whiteSpace=wrap;rounded=0;" vertex="1" parent="i_vSF7Kx8suil93t1SV6-192">
          <mxGeometry x="42.5" y="130" width="250" height="20" as="geometry" />
        </mxCell>
        <mxCell id="i_vSF7Kx8suil93t1SV6-202" value="" style="triangle;whiteSpace=wrap;html=1;shadow=1;fillColor=#e51400;direction=north;strokeColor=#B20000;fontColor=#ffffff;" vertex="1" parent="i_vSF7Kx8suil93t1SV6-192">
          <mxGeometry x="42.5" y="230" width="96.25" height="70" as="geometry" />
        </mxCell>
        <mxCell id="i_vSF7Kx8suil93t1SV6-203" value="" style="ellipse;whiteSpace=wrap;html=1;aspect=fixed;fillColor=#e51400;strokeColor=#B20000;fontColor=#ffffff;" vertex="1" parent="i_vSF7Kx8suil93t1SV6-192">
          <mxGeometry x="200" y="225" width="80" height="80" as="geometry" />
        </mxCell>
        <mxCell id="i_vSF7Kx8suil93t1SV6-204" value="" style="rhombus;whiteSpace=wrap;html=1;fillColor=#e51400;strokeColor=#B20000;fontColor=#ffffff;" vertex="1" parent="i_vSF7Kx8suil93t1SV6-192">
          <mxGeometry x="50.629999999999995" y="370" width="80" height="80" as="geometry" />
        </mxCell>
        <mxCell id="i_vSF7Kx8suil93t1SV6-205" value="" style="rounded=0;whiteSpace=wrap;html=1;fillColor=#e51400;strokeColor=#B20000;fontColor=#ffffff;" vertex="1" parent="i_vSF7Kx8suil93t1SV6-192">
          <mxGeometry x="180" y="380" width="120" height="60" as="geometry" />
        </mxCell>
        <mxCell id="i_vSF7Kx8suil93t1SV6-206" value="" style="dashed=0;outlineConnect=0;html=1;align=center;labelPosition=center;verticalLabelPosition=bottom;verticalAlign=top;shape=mxgraph.weblogos.feed;fillColor=#000000;shadow=1;" vertex="1" parent="i_vSF7Kx8suil93t1SV6-192">
          <mxGeometry x="280" y="100" width="30.61" height="30" as="geometry" />
        </mxCell>
      </root>
    </mxGraphModel>
  </diagram>
</mxfile>
